<svg xmlns="http://www.w3.org/2000/svg" xmlns:xlink="http://www.w3.org/1999/xlink" height="927" viewBox="0 0 117 927" width="117"><svg height="451" viewBox="0 0 109 451" width="109" x="4" y="4"><g clip-path="url(#clip0)"><path fill-rule="evenodd" clip-rule="evenodd" d="M-0.00991163 254.2C-0.00991163 270.425 5.08991 283.763 15.3099 294.327C13.7 295.343 12.1777 296.493 10.7596 297.763C3.58962 304.191 8.83685e-05 313.121 -0.00991163 324.552C-0.103067 332.147 1.63589 339.652 5.05991 346.431C8.11659 352.711 12.7553 358.087 18.5199 362.031C12.8009 364.36 8.05112 368.576 5.05991 373.978C1.65991 379.678 -0.00991163 386.519 -0.00991163 394.478C-0.00991163 409.282 5.40007 420.598 16.2201 428.425H2.74985V450.995H106.27V428.425H37.9501C33.0548 425.794 28.9368 421.923 26.0096 417.199C22.9826 412.633 21.3464 407.287 21.2997 401.809C21.2997 387.704 29.7997 380.654 46.7997 380.659H106.27V358.066H38.5697C33.5174 355.706 29.2386 351.961 26.2298 347.266C23.0524 342.681 21.3338 337.244 21.2997 331.666C21.2997 317.742 29.7997 310.772 46.7997 310.757H54.39C69.71 310.757 82.64 305.454 93.18 294.848C95.2516 292.772 97.148 290.529 98.85 288.141C105.61 278.728 108.993 267.415 109 254.202C109 238.014 103.727 224.547 93.18 213.802C88.1359 208.651 82.0941 204.583 75.4247 201.847C68.7552 199.11 61.5981 197.762 54.39 197.885C39.2 197.885 26.3363 203.191 15.7997 213.802C5.26966 224.568 8.83685e-05 238.035 -0.00991163 254.202V254.2ZM79.0497 230.127C85.4011 236.581 88.9608 245.272 88.9608 254.327C88.9608 263.382 85.4011 272.074 79.0497 278.527C72.5797 284.918 64.36 288.143 54.39 288.143C44.56 288.143 36.4098 284.918 29.9398 278.527C23.5884 272.074 20.0287 263.382 20.0287 254.327C20.0287 245.272 23.5884 236.581 29.9398 230.127C36.4098 223.737 44.56 220.504 54.39 220.504C64.36 220.504 72.5797 223.737 79.0497 230.127ZM5.78989 136.772C9.20453 143.275 14.3462 148.71 20.6498 152.479H2.74009V175.087H106.25V152.473H42.7899C37.1699 149.954 32.39 145.625 28.45 139.488C24.5043 133.301 22.4531 126.096 22.5497 118.759C22.5761 116.66 22.7198 114.564 22.9798 112.481H0.200049C0.0347799 113.168 -0.0358338 113.875 -0.00991163 114.581C-0.0223799 122.353 1.97547 129.996 5.78989 136.768V136.772ZM54.39 -16.992C39.21 -16.992 26.3463 -11.6863 15.7997 -1.07498C5.26966 9.65369 8.83685e-05 23.1204 -0.00991163 39.325C-0.00991163 55.7917 5.25966 69.33 15.7997 79.94C26.3397 90.564 39.2033 95.8674 54.39 95.85C69.71 95.85 82.6431 90.5467 93.1898 79.94C103.723 69.34 108.993 55.8017 109 39.325C109 23.137 103.73 9.67036 93.1898 -1.07498C88.866 -5.39824 83.8675 -8.98885 78.39 -11.706V14.624C78.6 14.835 78.8397 15.045 79.0497 15.248C85.3941 21.6971 88.9501 30.3814 88.9501 39.428C88.9501 48.4747 85.3941 57.1589 79.0497 63.608C74.197 68.4877 67.9043 71.678 61.1 72.708V-16.61C58.8734 -16.8772 56.6325 -17.0055 54.39 -16.994V-16.992ZM43.8597 71.8C38.5877 70.3145 33.7895 67.4916 29.93 63.605C23.5906 57.1533 20.0384 48.47 20.0384 39.425C20.0384 30.38 23.5906 21.6967 29.93 15.245C33.7905 11.3587 38.5882 8.53432 43.8597 7.04502V71.8Z" fill="#fff"/></g><defs><clipPath id="clip0"><path fill="#fff" transform="translate(0 -17)" d="M0 0H109V468H0z"/></clipPath></defs></svg><svg height="98" viewBox="0 0 37 98" width="37" x="4" y="459"><g clip-path="url(#clip0)"><path fill-rule="evenodd" clip-rule="evenodd" d="M15.751 54.022C15.8167 56.3437 15.0697 58.6154 13.639 60.445C12.9537 61.2979 12.0787 61.9792 11.0838 62.4345C10.0889 62.8899 9.00149 63.1068 7.90801 63.068C6.86304 63.0898 5.82523 62.8908 4.86247 62.4839C3.89971 62.0771 3.03367 61.4716 2.32101 60.707C1.55154 59.8694 0.955152 58.888 0.566109 57.8192C0.177065 56.7504 0.00303329 55.6152 0.0540104 54.479C0.0138094 53.4411 0.188316 52.4062 0.566607 51.4389C0.944897 50.4716 1.51882 49.5928 2.25244 48.8576C2.98606 48.1224 3.86358 47.5466 4.83003 47.1662C5.79649 46.7858 6.83108 46.6091 7.86901 46.647H9.16201L9.16801 57.847C9.55457 57.7143 9.90811 57.5001 10.2047 57.2188C10.5013 56.9376 10.734 56.596 10.887 56.217C11.3116 55.1203 11.5155 53.9506 11.487 52.775C11.4736 50.9607 11.028 49.1757 10.187 47.568H14.187C15.3295 49.5191 15.8724 51.7634 15.748 54.021L15.751 54.022ZM6.40201 57.85V51.864C6.05436 51.8664 5.71138 51.9442 5.39679 52.0922C5.0822 52.2402 4.80351 52.4547 4.58001 52.721C4.1072 53.2781 3.85779 53.9907 3.88001 54.721C3.85665 55.4781 4.09583 56.2201 4.55701 56.821C5.01521 57.3944 5.68027 57.765 6.40901 57.853L6.40201 57.85ZM2.26901 83.9C0.80823 85.5155 -0.000577912 87.616 -0.000577912 89.794C-0.000577912 91.972 0.80823 94.0725 2.26901 95.688C2.98484 96.4386 3.8492 97.0318 4.807 97.4299C5.7648 97.828 6.79502 98.0221 7.83201 98C8.87772 98.021 9.91653 97.8263 10.8836 97.428C11.8507 97.0297 12.7254 96.4363 13.453 95.685C14.8963 94.0609 15.6934 91.9637 15.6934 89.791C15.6934 87.6183 14.8963 85.5211 13.453 83.897C12.7256 83.1453 11.851 82.5517 10.8839 82.1532C9.91672 81.7547 8.87781 81.5599 7.83201 81.581C6.79521 81.5629 5.76587 81.7593 4.80857 82.1578C3.85126 82.5564 2.98666 83.1485 2.26901 83.897V83.9ZM10.558 87.115C11.2548 87.8313 11.6447 88.7912 11.6447 89.7905C11.6447 90.7898 11.2548 91.7497 10.558 92.466C10.1973 92.8153 9.77018 93.0886 9.30194 93.2698C8.8337 93.451 8.33386 93.5364 7.83201 93.521C7.33365 93.5399 6.83672 93.456 6.37219 93.2745C5.90767 93.093 5.48551 92.8178 5.13201 92.466C4.77239 92.1214 4.48964 91.7047 4.30232 91.2432C4.11499 90.7816 4.0273 90.2858 4.04501 89.788C4.02962 89.2905 4.11837 88.7953 4.30556 88.3341C4.49275 87.873 4.77425 87.456 5.13201 87.11C5.48646 86.7598 5.90891 86.486 6.37328 86.3054C6.83765 86.1248 7.33411 86.0413 7.83201 86.06C8.33344 86.048 8.8323 86.135 9.30006 86.3161C9.76782 86.4971 10.1953 86.7686 10.558 87.115ZM9.55164e-06 70.507C-0.03289 72.2037 0.603705 73.8451 1.77201 75.076H0.372009V79.611H15.313V75.076H7.11301C6.63849 75.0842 6.16995 74.9692 5.75315 74.7422C5.33635 74.5153 4.98555 74.1841 4.73501 73.781L4.72501 73.765C4.40471 73.255 4.23007 72.6671 4.22001 72.065C4.20471 71.7331 4.2578 71.4016 4.37598 71.0911C4.49416 70.7806 4.67491 70.4977 4.90701 70.26C5.20111 70.0084 5.54224 69.8176 5.91062 69.6988C6.27901 69.58 6.66731 69.5356 7.05301 69.568H15.319V65.038H6.20701C4.56554 64.9438 2.94667 65.4559 1.65801 66.477C1.10111 66.9845 0.663588 67.6092 0.376907 68.306C0.0902268 69.0028 -0.0384906 69.7545 9.55164e-06 70.507ZM8.31001 28.96C8.29381 29.4336 8.37253 29.9057 8.54152 30.3484C8.71051 30.7912 8.96636 31.1956 9.29401 31.538C9.19077 31.6035 9.0931 31.6774 9.00201 31.759C8.76798 31.9779 8.58474 32.2454 8.46519 32.5428C8.34564 32.8401 8.29267 33.16 8.31001 33.48C8.30388 33.9681 8.41572 34.4504 8.63601 34.886C8.83235 35.289 9.13052 35.6337 9.50101 35.886C9.13323 36.0354 8.82787 36.3065 8.63601 36.654C8.33089 37.23 8.23557 37.8941 8.36638 38.5327C8.49719 39.1712 8.84599 39.7444 9.35301 40.154H8.48701V41.6H15.138V40.15H10.748C10.4336 39.9811 10.1691 39.7324 9.98101 39.429C9.7876 39.1352 9.6834 38.7917 9.68101 38.44C9.68101 37.534 10.2273 37.081 11.32 37.081H15.141V35.634H10.791C10.467 35.4822 10.1927 35.2415 10 34.94C9.79617 34.6461 9.6857 34.2976 9.68301 33.94C9.68301 33.0453 10.2293 32.5977 11.322 32.597H11.81C12.2732 32.606 12.7332 32.5197 13.1616 32.3433C13.5899 32.167 13.9774 31.9044 14.3 31.572C14.4329 31.4385 14.5547 31.2944 14.664 31.141C15.1087 30.5023 15.3372 29.738 15.316 28.96C15.3305 28.4805 15.248 28.0031 15.0734 27.5563C14.8988 27.1095 14.6357 26.7026 14.3 26.36C13.976 26.029 13.5879 25.7676 13.1594 25.5917C12.731 25.4158 12.2711 25.3291 11.808 25.337C11.3466 25.3284 10.8883 25.4148 10.4617 25.5907C10.0351 25.7667 9.64917 26.0286 9.32801 26.36C8.99245 26.7027 8.72958 27.1096 8.55516 27.5564C8.38075 28.0032 8.29838 28.4806 8.31301 28.96H8.31001ZM13.393 27.413C13.8008 27.8276 14.0293 28.3859 14.0293 28.9675C14.0293 29.5491 13.8008 30.1073 13.393 30.522C12.9634 30.9193 12.3997 31.14 11.8145 31.14C11.2293 31.14 10.6657 30.9193 10.236 30.522C9.82823 30.1073 9.59971 29.5491 9.59971 28.9675C9.59971 28.3859 9.82823 27.8276 10.236 27.413C10.6655 27.0155 11.2293 26.7947 11.8145 26.7947C12.3998 26.7947 12.9635 27.0155 13.393 27.413ZM8.68501 21.413C8.90467 21.8306 9.23508 22.1797 9.64001 22.422H8.48701V23.875H15.138V22.425H11.06C10.6773 22.2439 10.3565 21.9537 10.138 21.591C9.88483 21.1933 9.75313 20.7304 9.75901 20.259C9.76077 20.1253 9.76979 19.9917 9.78601 19.859H8.32401C8.31275 19.9031 8.30803 19.9485 8.31001 19.994C8.30917 20.4932 8.43768 20.9842 8.68301 21.419L8.68501 21.413ZM11.806 11.54C11.3446 11.5314 10.8863 11.6178 10.4597 11.7937C10.0331 11.9697 9.64717 12.2316 9.32601 12.563C8.6745 13.2721 8.31297 14.2 8.31297 15.163C8.31297 16.126 8.6745 17.0539 9.32601 17.763C9.98798 18.4177 10.8815 18.7849 11.8125 18.7849C12.7436 18.7849 13.637 18.4177 14.299 17.763C14.9512 17.0542 15.3131 16.1262 15.3131 15.163C15.3131 14.1998 14.9512 13.2718 14.299 12.563C14.0211 12.2853 13.6999 12.0547 13.348 11.88V13.572L13.39 13.612C13.7977 14.0263 14.0261 14.5843 14.0261 15.1655C14.0261 15.7467 13.7977 16.3047 13.39 16.719C13.0783 17.0324 12.6741 17.2371 12.237 17.303V11.562C12.094 11.5447 11.9501 11.5364 11.806 11.537V11.54ZM11.129 17.237C10.7907 17.1415 10.4828 16.9603 10.235 16.711C9.82783 16.2964 9.5997 15.7386 9.5997 15.1575C9.5997 14.5764 9.82783 14.0186 10.235 13.604C10.4828 13.3545 10.7907 13.173 11.129 13.077V17.237ZM23.589 55.548C22.8553 56.1576 22.2685 56.9249 21.8722 57.7926C21.4759 58.6603 21.2803 59.6062 21.3 60.56C21.2662 61.3869 21.4044 62.2119 21.7058 62.9827C22.0072 63.7534 22.4653 64.4533 23.051 65.038H17.051V69.574H36.62V65.038H35.268C35.8541 64.4544 36.3111 63.7543 36.6094 62.9829C36.9078 62.2115 37.0408 61.3861 37 60.56C37.0201 59.6094 36.8282 58.6662 36.4381 57.7991C36.048 56.9319 35.4697 56.1626 34.745 55.547C33.1884 54.21 31.1891 53.5019 29.138 53.561C27.1031 53.4936 25.119 54.2037 23.589 55.547V55.548ZM31.869 59.099C32.2292 59.4289 32.5127 59.8338 32.6996 60.285C32.8866 60.7363 32.9724 61.223 32.951 61.711C32.9576 62.4096 32.7602 63.095 32.383 63.683C32.0281 64.2472 31.5371 64.7132 30.955 65.038H27.316C26.7367 64.718 26.251 64.2523 25.907 63.687C25.5345 63.0958 25.3404 62.4097 25.348 61.711C25.3269 61.2231 25.413 60.7365 25.6001 60.2854C25.7872 59.8344 26.0708 59.4297 26.431 59.1C27.1633 58.4147 28.1354 58.0445 29.138 58.069C30.148 58.0429 31.1282 58.4129 31.869 59.1V59.099ZM29.683 41.55H21.733V37.493H36.62V41.55H34.453C35.1334 42.1482 35.6751 42.8876 36.0406 43.7166C36.406 44.5455 36.5863 45.4442 36.569 46.35C36.6087 47.0695 36.4876 47.7888 36.2145 48.4557C35.9414 49.1225 35.5231 49.7201 34.99 50.205C33.747 51.1913 32.184 51.6847 30.6 51.591H21.732V47.534H29.758C30.1758 47.5683 30.5962 47.5185 30.9944 47.3875C31.3925 47.2564 31.7603 47.0468 32.076 46.771C32.3283 46.5105 32.5251 46.2015 32.6546 45.8627C32.784 45.5239 32.8433 45.1624 32.829 44.8C32.82 44.1536 32.6347 43.5218 32.293 42.973L32.283 42.955C32.0071 42.5169 31.6229 42.1573 31.1674 41.911C30.712 41.6647 30.2007 41.54 29.683 41.549V41.55ZM21.3 26.222C21.3013 27.3203 21.6025 28.3973 22.171 29.337C22.5404 29.9665 23.0172 30.5263 23.58 30.991H21.68V35.522H36.62V30.992H29.234C28.6712 31.0007 28.1152 30.8679 27.6171 30.6058C27.1189 30.3437 26.6946 29.9607 26.383 29.492C26.3782 29.4853 26.3739 29.4783 26.37 29.471C25.9022 28.7421 25.6588 27.892 25.67 27.026C25.6656 26.6176 25.7116 26.2102 25.807 25.813L25.881 25.513H21.385L21.341 25.696C21.3101 25.8672 21.2976 26.0412 21.304 26.215L21.3 26.222ZM23.574 9.44499C22.8171 10.2225 22.2256 11.1454 21.8355 12.1579C21.4453 13.1705 21.2645 14.2516 21.304 15.336C21.2645 16.4205 21.4453 17.5018 21.8354 18.5145C22.2256 19.5272 22.817 20.4503 23.574 21.228C24.2892 21.9799 25.1536 22.5741 26.1117 22.9728C27.0698 23.3714 28.1005 23.5656 29.138 23.543C30.1838 23.5647 31.2228 23.3703 32.1901 22.972C33.1573 22.5736 34.0318 21.9799 34.759 21.228C36.2023 19.6049 36.9996 17.5085 36.9996 15.3365C36.9996 13.1645 36.2023 11.0681 34.759 9.44499C34.0319 8.69289 33.1574 8.09898 32.1902 7.70046C31.223 7.30195 30.1839 7.1074 29.138 7.12899C28.1009 7.11004 27.0712 7.30603 26.1136 7.70463C25.156 8.10322 24.2913 8.69578 23.574 9.44499ZM31.864 12.658C32.561 13.3754 32.9508 14.3363 32.9508 15.3365C32.9508 16.3367 32.561 17.2976 31.864 18.015C31.5028 18.3636 31.0756 18.6364 30.6075 18.8176C30.1394 18.9988 29.6398 19.0846 29.138 19.07C28.6401 19.0855 28.1441 19 27.6801 18.8187C27.216 18.6374 26.7935 18.364 26.438 18.015C25.7413 17.2966 25.3516 16.3352 25.3516 15.3345C25.3516 14.3338 25.7413 13.3723 26.438 12.654C26.7945 12.3066 27.2173 12.0346 27.6812 11.8542C28.145 11.6738 28.6405 11.5887 29.138 11.604C30.1504 11.5817 31.1304 11.961 31.864 12.659V12.658ZM32.211 0.79999C31.8244 1.18188 31.5604 1.67031 31.4526 2.20293C31.3449 2.73554 31.3983 3.28819 31.6061 3.79032C31.8138 4.29244 32.1665 4.72126 32.6191 5.02204C33.0717 5.32282 33.6036 5.4819 34.147 5.47899C34.5127 5.48707 34.8763 5.42236 35.2167 5.28862C35.5572 5.15489 35.8676 4.9548 36.13 4.69999C36.388 4.44498 36.5928 4.14131 36.7326 3.80659C36.8723 3.47186 36.9443 3.11273 36.9443 2.74999C36.9443 2.38725 36.8723 2.02812 36.7326 1.6934C36.5928 1.35867 36.388 1.05501 36.13 0.79999C35.8705 0.540137 35.5612 0.335346 35.2206 0.197882C34.88 0.0604178 34.5152 -0.00689054 34.148 -9.17408e-06C33.7877 -0.00646516 33.4299 0.0612187 33.0969 0.19884C32.7638 0.33646 32.4627 0.541079 32.212 0.79999H32.211ZM26.987 76.377V81.6H21.732V85.947H26.986V91.165H31.365V85.947H36.62V81.6H31.366V76.383H26.987V76.377Z" fill="#fff"/></g><defs><clipPath id="clip0"><path fill="#fff" d="M0 0H37V98H0z"/></clipPath></defs></svg><svg height="48" viewBox="0 0 97 48" width="97" x="4" y="561"><path fill-rule="evenodd" clip-rule="evenodd" d="M48.3868 24C48.3868 28.7468 49.7914 33.387 52.4231 37.3338C55.0547 41.2805 58.7952 44.3566 63.1715 46.1731C67.5479 47.9896 72.3634 48.4649 77.0093 47.5388C81.6552 46.6128 85.9227 44.3271 89.2722 40.9706C92.6217 37.6141 94.9027 33.3377 95.8268 28.6822C96.7509 24.0267 96.2766 19.201 94.4639 14.8156C92.6512 10.4302 89.5815 6.6819 85.6429 4.04474C81.7043 1.40759 77.0738 0 72.3369 0C65.9875 0.00846654 59.9007 2.53978 55.411 7.03882C50.9213 11.5379 48.3952 17.6374 48.3868 24ZM50.3926 24C50.3926 19.6508 51.6796 15.3993 54.0908 11.783C56.5021 8.16679 59.9294 5.34827 63.9392 3.6839C67.949 2.01953 72.3612 1.58407 76.618 2.43256C80.8748 3.28105 84.7849 5.37539 87.8539 8.45075C90.9229 11.5261 93.0128 15.4443 93.8596 19.71C94.7063 23.9756 94.2717 28.3971 92.6108 32.4152C90.9499 36.4334 88.1373 39.8678 84.5285 42.2841C80.9198 44.7004 76.6771 45.99 72.3369 45.99C66.5192 45.9826 60.9418 43.6635 56.8281 39.5412C52.7143 35.4188 50.4 29.8298 50.3926 24ZM64.3535 25H77.3265L77.3065 27L81.3182 24.5L77.3065 22L77.3265 24H64.3535V25ZM28.4284 24V25H0.486572V24H28.4284Z" fill="#fff"/></svg><svg height="48" viewBox="0 0 48 48" width="48" x="4" y="613"><path fill-rule="evenodd" clip-rule="evenodd" d="M48 24C48 28.7468 46.5925 33.387 43.9553 37.3337C41.3182 41.2805 37.5699 44.3566 33.1844 46.1731C28.799 47.9896 23.9734 48.4649 19.3179 47.5388C14.6623 46.6128 10.3859 44.327 7.02942 40.9706C3.67296 37.6141 1.38723 33.3377 0.461182 28.6822C-0.464863 24.0266 0.0104027 19.201 1.8269 14.8156C3.64341 10.4302 6.71948 6.68189 10.6663 4.04474C14.613 1.40758 19.2532 0 24 0C30.3626 0.00846654 36.4621 2.53978 40.9612 7.03882C45.4602 11.5379 47.9915 17.6374 48 24ZM45.99 24C45.99 19.6508 44.7003 15.3993 42.2841 11.783C39.8678 8.16678 36.4333 5.34827 32.4152 3.6839C28.397 2.01953 23.9756 1.58407 19.71 2.43256C15.4443 3.28105 11.526 5.37539 8.45068 8.45074C5.37533 11.5261 3.28098 15.4443 2.4325 19.71C1.58401 23.9756 2.01947 28.3971 3.68384 32.4152C5.34821 36.4334 8.16672 39.8678 11.783 42.2841C15.3992 44.7003 19.6508 45.99 24 45.99C29.8298 45.9826 35.4188 43.6635 39.5411 39.5411C43.6635 35.4188 45.9826 29.8298 45.99 24ZM32 25H19L19.02 27L15 24.5L19.02 22L19 24H32V25Z" fill="#fff"/></svg><svg height="48" viewBox="0 0 48 48" width="48" x="4" y="665"><path fill-rule="evenodd" clip-rule="evenodd" d="M0 24C0 28.7468 1.40752 33.387 4.04468 37.3337C6.68183 41.2805 10.4301 44.3566 14.8156 46.1731C19.201 47.9896 24.0266 48.4649 28.6821 47.5388C33.3377 46.6128 37.6141 44.327 40.9706 40.9706C44.327 37.6141 46.6128 33.3377 47.5388 28.6822C48.4649 24.0266 47.9896 19.201 46.1731 14.8156C44.3566 10.4302 41.2805 6.68189 37.3337 4.04474C33.387 1.40758 28.7468 0 24 0C17.6374 0.00846654 11.5379 2.53978 7.03882 7.03882C2.53978 11.5379 0.00846654 17.6374 0 24ZM2.01001 24C2.01001 19.6508 3.29965 15.3993 5.71594 11.783C8.13223 8.16678 11.5667 5.34827 15.5848 3.6839C19.603 2.01953 24.0244 1.58407 28.29 2.43256C32.5557 3.28105 36.474 5.37539 39.5493 8.45074C42.6247 11.5261 44.719 15.4443 45.5675 19.71C46.416 23.9756 45.9805 28.3971 44.3162 32.4152C42.6518 36.4334 39.8333 39.8678 36.217 42.2841C32.6008 44.7003 28.3492 45.99 24 45.99C18.1702 45.9826 12.5812 43.6635 8.45886 39.5411C4.33654 35.4188 2.01742 29.8298 2.01001 24ZM16 25H29L28.98 27L33 24.5L28.98 22L29 24H16V25Z" fill="#fff"/></svg><svg height="36" viewBox="0 0 42 36" width="42" x="4" y="717"><g filter="url(#filter0_d)"><path fill="#fff" d="M4 0H38V4H4z"/><path fill="#fff" d="M4 12H38V16H4z"/><path fill="#CE2323" d="M4 24H28V28H4z"/></g><defs><filter id="filter0_d" x="0" y="0" width="42" height="36" filterUnits="userSpaceOnUse" color-interpolation-filters="sRGB"><feFlood flood-opacity="0" result="BackgroundImageFix"/><feColorMatrix in="SourceAlpha" values="0 0 0 0 0 0 0 0 0 0 0 0 0 0 0 0 0 0 127 0"/><feOffset dy="4"/><feGaussianBlur stdDeviation="2"/><feColorMatrix values="0 0 0 0 0 0 0 0 0 0 0 0 0 0 0 0 0 0 0.25 0"/><feBlend in2="BackgroundImageFix" result="effect1_dropShadow"/><feBlend in="SourceGraphic" in2="effect1_dropShadow" result="shape"/></filter></defs></svg><svg height="34" viewBox="0 0 34 34" width="34" x="4" y="757"><path d="M16.9997 0C10.2985 0 4.84668 5.45183 4.84668 12.153C4.84668 14.9044 6.77771 19.2699 10.5862 25.1283C13.3688 29.4085 16.191 32.9794 16.2192 33.0149L16.9998 34L17.7803 33.0149C17.8085 32.9793 20.6307 29.4085 23.4133 25.1283C27.2218 19.27 29.1529 14.9044 29.1529 12.153C29.1528 5.45183 23.7009 0 16.9997 0ZM16.9996 30.7732C13.5712 26.2836 6.83834 16.5576 6.83834 12.153C6.83834 6.55006 11.3967 1.99166 16.9997 1.99166C22.6027 1.99166 27.1611 6.55006 27.1611 12.153C27.1611 16.5553 20.4281 26.2828 16.9996 30.7732Z" fill="#fff"/><path d="M17 4.78C13.0831 4.78 9.89648 7.96664 9.89648 11.8836C9.89648 15.8005 13.0831 18.9871 17 18.9871C20.9169 18.9871 24.1036 15.8005 24.1036 11.8836C24.1037 7.96664 20.917 4.78 17 4.78ZM17 16.9955C14.1813 16.9955 11.8881 14.7023 11.8881 11.8836C11.8881 9.06494 14.1814 6.77173 17 6.77173C19.8188 6.77173 22.1119 9.06494 22.1119 11.8836C22.1119 14.7023 19.8188 16.9955 17 16.9955Z" fill="#fff"/></svg><svg height="22" viewBox="0 0 34 22" width="34" x="4" y="795"><path d="M0 0.445068V21.555H34V0.445068H0ZM30.1405 2.43726L17 12.4175L3.85953 2.43726H30.1405ZM1.99219 3.52034L12.4963 11.4984L1.99219 18.6729V3.52034ZM4.22078 19.5628L14.1691 12.7687L17 14.919L19.8309 12.7687L29.7792 19.5628H4.22078ZM32.0078 18.6729L21.5037 11.4984L32.0078 3.52034V18.6729Z" fill="#fff"/></svg><svg height="34" viewBox="0 0 20 34" width="20" x="4" y="821"><path d="M0.470703 0V34H19.5293V0H0.470703ZM17.5371 32.0078H2.46289V28.2891H17.5371V32.0078ZM17.5371 26.2969H2.46289V6.64062H17.5371V26.2969ZM17.5371 4.64844H2.46289V1.99219H17.5371V4.64844Z" fill="#fff"/><path d="M10.8187 29.1855H8.84863V31.1556H10.8187V29.1855Z" fill="#fff"/></svg><svg height="15" viewBox="0 0 25 15" width="25" x="4" y="859"><g clip-path="url(#clip0)"><path fill-rule="evenodd" clip-rule="evenodd" d="M23 1.98999H15.983V0H23V1.98999ZM12.379 8.27002C12.8048 8.92311 13.0208 9.69068 12.998 10.47C13.0021 11.1679 12.8383 11.8567 12.5203 12.478C12.2023 13.0994 11.7396 13.6352 11.171 14.04C10.6367 14.4205 10.0258 14.6799 9.381 14.8C8.64217 14.9361 7.89226 15.0031 7.141 15H0V0H7.663C9.594 0.03 10.963 0.559976 11.772 1.59998C12.2645 2.25994 12.52 3.06684 12.497 3.89001C12.5349 4.69205 12.2737 5.47954 11.764 6.09998C11.4207 6.45944 11.0103 6.74818 10.556 6.94995C11.2929 7.17848 11.9346 7.64219 12.383 8.27002H12.379ZM3.002 5.98999H6.502C7.13842 6.03121 7.77361 5.89257 8.335 5.58997C8.56954 5.39736 8.75222 5.14922 8.86644 4.86804C8.98065 4.58687 9.02278 4.28158 8.989 3.97998C9.03239 3.64513 8.97277 3.305 8.81806 3.00488C8.66336 2.70476 8.42091 2.45896 8.123 2.30005C7.60944 2.09123 7.05686 1.99569 6.503 2.02002H3.003V5.98999H3.002ZM10.002 10.27C10.0408 9.85516 9.95321 9.43821 9.75062 9.0741C9.54804 8.70998 9.23999 8.41571 8.867 8.22998C8.2246 8.03802 7.55285 7.96353 6.884 8.01001H3.006V12.98H7.022C7.64232 13.0151 8.26209 12.902 8.83 12.65C9.23374 12.4084 9.55899 12.0551 9.76658 11.6328C9.97416 11.2105 10.0552 10.7373 10 10.27H10.002ZM24.902 7.55005C24.9889 8.36364 25.0217 9.18206 25 10H17C16.9583 10.4281 17.0375 10.8593 17.2286 11.2446C17.4197 11.63 17.715 11.9541 18.081 12.1801C18.5627 12.4712 19.1183 12.617 19.681 12.6C20.2614 12.6259 20.8322 12.4452 21.292 12.09C21.5776 11.7614 21.8159 11.3945 22 11H25C24.8183 11.882 24.394 12.6959 23.775 13.35C23.2407 13.9117 22.5904 14.3503 21.8694 14.6353C21.1484 14.9202 20.374 15.0446 19.6 15C18.1724 15.0191 16.7852 14.526 15.69 13.61C14.5633 12.68 14 11.17 14 9.07996C13.9449 8.26461 14.0515 7.44648 14.3138 6.67249C14.576 5.89849 14.9886 5.18389 15.528 4.56995C15.9456 4.05729 16.4766 3.64867 17.0792 3.37622C17.6817 3.10377 18.3392 2.97499 19 3C20.0597 2.98765 21.1126 3.17074 22.106 3.54004C22.8914 3.9018 23.5564 4.48134 24.022 5.20996C24.4895 5.91334 24.792 6.71334 24.907 7.55005H24.902ZM23 8C22.8924 7.24347 22.5415 6.54248 22.0002 6.00305C21.459 5.46363 20.7569 5.11509 20 5.01001C17.925 5.01001 17.217 6.55 17.005 8H23.005H23Z" fill="#fff"/></g><defs><clipPath id="clip0"><path fill="#fff" d="M0 0H25V15H0z"/></clipPath></defs></svg><svg height="22" viewBox="0 0 22 22" width="22" x="4" y="878"><path fill-rule="evenodd" clip-rule="evenodd" d="M16 0H6C4.43852 0.0914109 2.96494 0.752926 1.85892 1.85895C0.752898 2.96497 0.0914109 4.43852 0 6V16C0.0914109 17.5615 0.752898 19.035 1.85892 20.1411C2.96494 21.2471 4.43852 21.9086 6 22H16C17.5616 21.9088 19.0353 21.2474 20.1413 20.1413C21.2474 19.0352 21.9088 17.5616 22 16V6C21.9088 4.43845 21.2474 2.96477 20.1413 1.8587C19.0353 0.752639 17.5616 0.0911969 16 0ZM20 16C19.9513 17.0452 19.5143 18.0346 18.7744 18.7744C18.0345 19.5143 17.0452 19.9513 16 20H6C4.95482 19.9513 3.96545 19.5143 3.2256 18.7744C2.48575 18.0346 2.04869 17.0452 2 16V6C2.04869 4.95482 2.48575 3.96544 3.2256 3.22559C3.96545 2.48573 4.95482 2.04869 6 2H16C17.0452 2.04869 18.0345 2.48573 18.7744 3.22559C19.5143 3.96544 19.9513 4.95482 20 6V16ZM11 5C9.81331 5 8.65328 5.35188 7.66658 6.01117C6.67989 6.67046 5.91085 7.60756 5.45672 8.70392C5.0026 9.80027 4.88378 11.0066 5.11529 12.1705C5.3468 13.3344 5.91824 14.4035 6.75736 15.2426C7.59647 16.0817 8.66557 16.6532 9.82946 16.8847C10.9933 17.1162 12.1997 16.9974 13.2961 16.5433C14.3925 16.0891 15.3295 15.3201 15.9888 14.3334C16.6481 13.3467 17 12.1867 17 11C17 9.4087 16.3679 7.8826 15.2426 6.75739C14.1174 5.63217 12.5913 5 11 5ZM11.081 14.991C10.549 15.0029 10.0199 14.9084 9.52495 14.713C9.02995 14.5176 8.57898 14.2254 8.19851 13.8533C7.81803 13.4813 7.51572 13.0369 7.30933 12.5464C7.10294 12.0559 6.99662 11.5292 6.99662 10.997C6.99662 10.4649 7.10294 9.93807 7.30933 9.44757C7.51572 8.95707 7.81803 8.51274 8.19851 8.14069C8.57898 7.76863 9.02995 7.47631 9.52495 7.28094C10.0199 7.08558 10.549 6.99108 11.081 7.00299C12.1405 7.00312 13.1566 7.42416 13.9057 8.17346C14.6549 8.92276 15.0756 9.93893 15.0755 10.9985C15.0754 12.058 14.6543 13.0741 13.905 13.8232C13.1557 14.5724 12.1395 14.9931 11.08 14.993L11.081 14.991ZM16.512 3.99103C16.1652 3.99188 15.8293 4.11285 15.5617 4.33344C15.294 4.55402 15.1111 4.86052 15.044 5.20081C14.9769 5.54109 15.0298 5.89416 15.1937 6.19983C15.3576 6.5055 15.6224 6.74488 15.9429 6.87732C16.2635 7.00976 16.62 7.027 16.9519 6.92615C17.2837 6.82529 17.5704 6.61257 17.763 6.32416C17.9557 6.03575 18.0424 5.68953 18.0085 5.34436C17.9746 4.99919 17.8221 4.67643 17.577 4.43103C17.292 4.15296 16.9091 3.99811 16.511 4L16.512 3.99103Z" fill="#fff"/></svg><svg height="19" viewBox="0 0 11 19" width="11" x="4" y="904"><path fill-rule="evenodd" clip-rule="evenodd" d="M0.936062 9.02349H3.92983V17.0235C3.92463 17.1562 3.94689 17.2885 3.9952 17.4122C4.04351 17.5359 4.11683 17.6483 4.21056 17.7422C4.30428 17.8361 4.41637 17.9096 4.5398 17.958C4.66322 18.0064 4.79531 18.0287 4.92775 18.0235H6.92359C6.90862 18.0235 6.92359 9.02349 6.92359 9.02349H9.91735C9.8465 9.02349 10.9662 6.02349 10.9153 6.02349H6.92359V4.02349C6.90137 3.88713 6.91183 3.74746 6.95412 3.61595C6.99641 3.48445 7.06931 3.36489 7.1668 3.2672C7.26429 3.16951 7.38358 3.09644 7.51481 3.05406C7.64603 3.01169 7.78544 3.00122 7.92151 3.02349C8.08716 3.02349 9.97623 3.02949 9.91735 3.02349C10.084 3.02349 10.069 3.00849 10.9153 3.02349V0.64348C10.9153 -0.18552 10.084 0.023485 9.91735 0.023485H6.92359C7.34671 0.023485 5.5265 0.247485 4.92775 1.02349C4.3584 1.54253 4.00259 2.25563 3.92983 3.02349V6.02349H0.936062C0.913109 5.99949 0.943047 9.02349 0.936062 9.02349Z" fill="#fff"/></svg></svg>