<svg width="25" height="15" viewBox="0 0 25 15" fill="none" xmlns="http://www.w3.org/2000/svg"><g clip-path="url(#clip0)"><path fill-rule="evenodd" clip-rule="evenodd" d="M23 1.98999H15.983V0H23V1.98999ZM12.379 8.27002C12.8048 8.92311 13.0208 9.69068 12.998 10.47C13.0021 11.1679 12.8383 11.8567 12.5203 12.478C12.2023 13.0994 11.7396 13.6352 11.171 14.04C10.6367 14.4205 10.0258 14.6799 9.381 14.8C8.64217 14.9361 7.89226 15.0031 7.141 15H0V0H7.663C9.594 0.03 10.963 0.559976 11.772 1.59998C12.2645 2.25994 12.52 3.06684 12.497 3.89001C12.5349 4.69205 12.2737 5.47954 11.764 6.09998C11.4207 6.45944 11.0103 6.74818 10.556 6.94995C11.2929 7.17848 11.9346 7.64219 12.383 8.27002H12.379ZM3.002 5.98999H6.502C7.13842 6.03121 7.77361 5.89257 8.335 5.58997C8.56954 5.39736 8.75222 5.14922 8.86644 4.86804C8.98065 4.58687 9.02278 4.28158 8.989 3.97998C9.03239 3.64513 8.97277 3.305 8.81806 3.00488C8.66336 2.70476 8.42091 2.45896 8.123 2.30005C7.60944 2.09123 7.05686 1.99569 6.503 2.02002H3.003V5.98999H3.002ZM10.002 10.27C10.0408 9.85516 9.95321 9.43821 9.75062 9.0741C9.54804 8.70998 9.23999 8.41571 8.867 8.22998C8.2246 8.03802 7.55285 7.96353 6.884 8.01001H3.006V12.98H7.022C7.64232 13.0151 8.26209 12.902 8.83 12.65C9.23374 12.4084 9.55899 12.0551 9.76658 11.6328C9.97416 11.2105 10.0552 10.7373 10 10.27H10.002ZM24.902 7.55005C24.9889 8.36364 25.0217 9.18206 25 10H17C16.9583 10.4281 17.0375 10.8593 17.2286 11.2446C17.4197 11.63 17.715 11.9541 18.081 12.1801C18.5627 12.4712 19.1183 12.617 19.681 12.6C20.2614 12.6259 20.8322 12.4452 21.292 12.09C21.5776 11.7614 21.8159 11.3945 22 11H25C24.8183 11.882 24.394 12.6959 23.775 13.35C23.2407 13.9117 22.5904 14.3503 21.8694 14.6353C21.1484 14.9202 20.374 15.0446 19.6 15C18.1724 15.0191 16.7852 14.526 15.69 13.61C14.5633 12.68 14 11.17 14 9.07996C13.9449 8.26461 14.0515 7.44648 14.3138 6.67249C14.576 5.89849 14.9886 5.18389 15.528 4.56995C15.9456 4.05729 16.4766 3.64867 17.0792 3.37622C17.6817 3.10377 18.3392 2.97499 19 3C20.0597 2.98765 21.1126 3.17074 22.106 3.54004C22.8914 3.9018 23.5564 4.48134 24.022 5.20996C24.4895 5.91334 24.792 6.71334 24.907 7.55005H24.902ZM23 8C22.8924 7.24347 22.5415 6.54248 22.0002 6.00305C21.459 5.46363 20.7569 5.11509 20 5.01001C17.925 5.01001 17.217 6.55 17.005 8H23.005H23Z" fill="#fff"/></g><defs><clipPath id="clip0"><path fill="#fff" d="M0 0H25V15H0z"/></clipPath></defs></svg>