<svg width="11" height="19" viewBox="0 0 11 19" fill="none" xmlns="http://www.w3.org/2000/svg"><path fill-rule="evenodd" clip-rule="evenodd" d="M0.936062 9.02349H3.92983V17.0235C3.92463 17.1562 3.94689 17.2885 3.9952 17.4122C4.04351 17.5359 4.11683 17.6483 4.21056 17.7422C4.30428 17.8361 4.41637 17.9096 4.5398 17.958C4.66322 18.0064 4.79531 18.0287 4.92775 18.0235H6.92359C6.90862 18.0235 6.92359 9.02349 6.92359 9.02349H9.91735C9.8465 9.02349 10.9662 6.02349 10.9153 6.02349H6.92359V4.02349C6.90137 3.88713 6.91183 3.74746 6.95412 3.61595C6.99641 3.48445 7.06931 3.36489 7.1668 3.2672C7.26429 3.16951 7.38358 3.09644 7.51481 3.05406C7.64603 3.01169 7.78544 3.00122 7.92151 3.02349C8.08716 3.02349 9.97623 3.02949 9.91735 3.02349C10.084 3.02349 10.069 3.00849 10.9153 3.02349V0.64348C10.9153 -0.18552 10.084 0.023485 9.91735 0.023485H6.92359C7.34671 0.023485 5.5265 0.247485 4.92775 1.02349C4.3584 1.54253 4.00259 2.25563 3.92983 3.02349V6.02349H0.936062C0.913109 5.99949 0.943047 9.02349 0.936062 9.02349Z" fill="#fff"/></svg>