<svg width="22" height="22" viewBox="0 0 22 22" fill="none" xmlns="http://www.w3.org/2000/svg"><path fill-rule="evenodd" clip-rule="evenodd" d="M16 0H6C4.43852 0.0914109 2.96494 0.752926 1.85892 1.85895C0.752898 2.96497 0.0914109 4.43852 0 6V16C0.0914109 17.5615 0.752898 19.035 1.85892 20.1411C2.96494 21.2471 4.43852 21.9086 6 22H16C17.5616 21.9088 19.0353 21.2474 20.1413 20.1413C21.2474 19.0352 21.9088 17.5616 22 16V6C21.9088 4.43845 21.2474 2.96477 20.1413 1.8587C19.0353 0.752639 17.5616 0.0911969 16 0ZM20 16C19.9513 17.0452 19.5143 18.0346 18.7744 18.7744C18.0345 19.5143 17.0452 19.9513 16 20H6C4.95482 19.9513 3.96545 19.5143 3.2256 18.7744C2.48575 18.0346 2.04869 17.0452 2 16V6C2.04869 4.95482 2.48575 3.96544 3.2256 3.22559C3.96545 2.48573 4.95482 2.04869 6 2H16C17.0452 2.04869 18.0345 2.48573 18.7744 3.22559C19.5143 3.96544 19.9513 4.95482 20 6V16ZM11 5C9.81331 5 8.65328 5.35188 7.66658 6.01117C6.67989 6.67046 5.91085 7.60756 5.45672 8.70392C5.0026 9.80027 4.88378 11.0066 5.11529 12.1705C5.3468 13.3344 5.91824 14.4035 6.75736 15.2426C7.59647 16.0817 8.66557 16.6532 9.82946 16.8847C10.9933 17.1162 12.1997 16.9974 13.2961 16.5433C14.3925 16.0891 15.3295 15.3201 15.9888 14.3334C16.6481 13.3467 17 12.1867 17 11C17 9.4087 16.3679 7.8826 15.2426 6.75739C14.1174 5.63217 12.5913 5 11 5ZM11.081 14.991C10.549 15.0029 10.0199 14.9084 9.52495 14.713C9.02995 14.5176 8.57898 14.2254 8.19851 13.8533C7.81803 13.4813 7.51572 13.0369 7.30933 12.5464C7.10294 12.0559 6.99662 11.5292 6.99662 10.997C6.99662 10.4649 7.10294 9.93807 7.30933 9.44757C7.51572 8.95707 7.81803 8.51274 8.19851 8.14069C8.57898 7.76863 9.02995 7.47631 9.52495 7.28094C10.0199 7.08558 10.549 6.99108 11.081 7.00299C12.1405 7.00312 13.1566 7.42416 13.9057 8.17346C14.6549 8.92276 15.0756 9.93893 15.0755 10.9985C15.0754 12.058 14.6543 13.0741 13.905 13.8232C13.1557 14.5724 12.1395 14.9931 11.08 14.993L11.081 14.991ZM16.512 3.99103C16.1652 3.99188 15.8293 4.11285 15.5617 4.33344C15.294 4.55402 15.1111 4.86052 15.044 5.20081C14.9769 5.54109 15.0298 5.89416 15.1937 6.19983C15.3576 6.5055 15.6224 6.74488 15.9429 6.87732C16.2635 7.00976 16.62 7.027 16.9519 6.92615C17.2837 6.82529 17.5704 6.61257 17.763 6.32416C17.9557 6.03575 18.0424 5.68953 18.0085 5.34436C17.9746 4.99919 17.8221 4.67643 17.577 4.43103C17.292 4.15296 16.9091 3.99811 16.511 4L16.512 3.99103Z" fill="#fff"/></svg>