<svg width="37" height="98" viewBox="0 0 37 98" fill="none" xmlns="http://www.w3.org/2000/svg"><g clip-path="url(#clip0)"><path fill-rule="evenodd" clip-rule="evenodd" d="M15.751 54.022C15.8167 56.3437 15.0697 58.6154 13.639 60.445C12.9537 61.2979 12.0787 61.9792 11.0838 62.4345C10.0889 62.8899 9.00149 63.1068 7.90801 63.068C6.86304 63.0898 5.82523 62.8908 4.86247 62.4839C3.89971 62.0771 3.03367 61.4716 2.32101 60.707C1.55154 59.8694 0.955152 58.888 0.566109 57.8192C0.177065 56.7504 0.00303329 55.6152 0.0540104 54.479C0.0138094 53.4411 0.188316 52.4062 0.566607 51.4389C0.944897 50.4716 1.51882 49.5928 2.25244 48.8576C2.98606 48.1224 3.86358 47.5466 4.83003 47.1662C5.79649 46.7858 6.83108 46.6091 7.86901 46.647H9.16201L9.16801 57.847C9.55457 57.7143 9.90811 57.5001 10.2047 57.2188C10.5013 56.9376 10.734 56.596 10.887 56.217C11.3116 55.1203 11.5155 53.9506 11.487 52.775C11.4736 50.9607 11.028 49.1757 10.187 47.568H14.187C15.3295 49.5191 15.8724 51.7634 15.748 54.021L15.751 54.022ZM6.40201 57.85V51.864C6.05436 51.8664 5.71138 51.9442 5.39679 52.0922C5.0822 52.2402 4.80351 52.4547 4.58001 52.721C4.1072 53.2781 3.85779 53.9907 3.88001 54.721C3.85665 55.4781 4.09583 56.2201 4.55701 56.821C5.01521 57.3944 5.68027 57.765 6.40901 57.853L6.40201 57.85ZM2.26901 83.9C0.80823 85.5155 -0.000577912 87.616 -0.000577912 89.794C-0.000577912 91.972 0.80823 94.0725 2.26901 95.688C2.98484 96.4386 3.8492 97.0318 4.807 97.4299C5.7648 97.828 6.79502 98.0221 7.83201 98C8.87772 98.021 9.91653 97.8263 10.8836 97.428C11.8507 97.0297 12.7254 96.4363 13.453 95.685C14.8963 94.0609 15.6934 91.9637 15.6934 89.791C15.6934 87.6183 14.8963 85.5211 13.453 83.897C12.7256 83.1453 11.851 82.5517 10.8839 82.1532C9.91672 81.7547 8.87781 81.5599 7.83201 81.581C6.79521 81.5629 5.76587 81.7593 4.80857 82.1578C3.85126 82.5564 2.98666 83.1485 2.26901 83.897V83.9ZM10.558 87.115C11.2548 87.8313 11.6447 88.7912 11.6447 89.7905C11.6447 90.7898 11.2548 91.7497 10.558 92.466C10.1973 92.8153 9.77018 93.0886 9.30194 93.2698C8.8337 93.451 8.33386 93.5364 7.83201 93.521C7.33365 93.5399 6.83672 93.456 6.37219 93.2745C5.90767 93.093 5.48551 92.8178 5.13201 92.466C4.77239 92.1214 4.48964 91.7047 4.30232 91.2432C4.11499 90.7816 4.0273 90.2858 4.04501 89.788C4.02962 89.2905 4.11837 88.7953 4.30556 88.3341C4.49275 87.873 4.77425 87.456 5.13201 87.11C5.48646 86.7598 5.90891 86.486 6.37328 86.3054C6.83765 86.1248 7.33411 86.0413 7.83201 86.06C8.33344 86.048 8.8323 86.135 9.30006 86.3161C9.76782 86.4971 10.1953 86.7686 10.558 87.115ZM9.55164e-06 70.507C-0.03289 72.2037 0.603705 73.8451 1.77201 75.076H0.372009V79.611H15.313V75.076H7.11301C6.63849 75.0842 6.16995 74.9692 5.75315 74.7422C5.33635 74.5153 4.98555 74.1841 4.73501 73.781L4.72501 73.765C4.40471 73.255 4.23007 72.6671 4.22001 72.065C4.20471 71.7331 4.2578 71.4016 4.37598 71.0911C4.49416 70.7806 4.67491 70.4977 4.90701 70.26C5.20111 70.0084 5.54224 69.8176 5.91062 69.6988C6.27901 69.58 6.66731 69.5356 7.05301 69.568H15.319V65.038H6.20701C4.56554 64.9438 2.94667 65.4559 1.65801 66.477C1.10111 66.9845 0.663588 67.6092 0.376907 68.306C0.0902268 69.0028 -0.0384906 69.7545 9.55164e-06 70.507ZM8.31001 28.96C8.29381 29.4336 8.37253 29.9057 8.54152 30.3484C8.71051 30.7912 8.96636 31.1956 9.29401 31.538C9.19077 31.6035 9.0931 31.6774 9.00201 31.759C8.76798 31.9779 8.58474 32.2454 8.46519 32.5428C8.34564 32.8401 8.29267 33.16 8.31001 33.48C8.30388 33.9681 8.41572 34.4504 8.63601 34.886C8.83235 35.289 9.13052 35.6337 9.50101 35.886C9.13323 36.0354 8.82787 36.3065 8.63601 36.654C8.33089 37.23 8.23557 37.8941 8.36638 38.5327C8.49719 39.1712 8.84599 39.7444 9.35301 40.154H8.48701V41.6H15.138V40.15H10.748C10.4336 39.9811 10.1691 39.7324 9.98101 39.429C9.7876 39.1352 9.6834 38.7917 9.68101 38.44C9.68101 37.534 10.2273 37.081 11.32 37.081H15.141V35.634H10.791C10.467 35.4822 10.1927 35.2415 10 34.94C9.79617 34.6461 9.6857 34.2976 9.68301 33.94C9.68301 33.0453 10.2293 32.5977 11.322 32.597H11.81C12.2732 32.606 12.7332 32.5197 13.1616 32.3433C13.5899 32.167 13.9774 31.9044 14.3 31.572C14.4329 31.4385 14.5547 31.2944 14.664 31.141C15.1087 30.5023 15.3372 29.738 15.316 28.96C15.3305 28.4805 15.248 28.0031 15.0734 27.5563C14.8988 27.1095 14.6357 26.7026 14.3 26.36C13.976 26.029 13.5879 25.7676 13.1594 25.5917C12.731 25.4158 12.2711 25.3291 11.808 25.337C11.3466 25.3284 10.8883 25.4148 10.4617 25.5907C10.0351 25.7667 9.64917 26.0286 9.32801 26.36C8.99245 26.7027 8.72958 27.1096 8.55516 27.5564C8.38075 28.0032 8.29838 28.4806 8.31301 28.96H8.31001ZM13.393 27.413C13.8008 27.8276 14.0293 28.3859 14.0293 28.9675C14.0293 29.5491 13.8008 30.1073 13.393 30.522C12.9634 30.9193 12.3997 31.14 11.8145 31.14C11.2293 31.14 10.6657 30.9193 10.236 30.522C9.82823 30.1073 9.59971 29.5491 9.59971 28.9675C9.59971 28.3859 9.82823 27.8276 10.236 27.413C10.6655 27.0155 11.2293 26.7947 11.8145 26.7947C12.3998 26.7947 12.9635 27.0155 13.393 27.413ZM8.68501 21.413C8.90467 21.8306 9.23508 22.1797 9.64001 22.422H8.48701V23.875H15.138V22.425H11.06C10.6773 22.2439 10.3565 21.9537 10.138 21.591C9.88483 21.1933 9.75313 20.7304 9.75901 20.259C9.76077 20.1253 9.76979 19.9917 9.78601 19.859H8.32401C8.31275 19.9031 8.30803 19.9485 8.31001 19.994C8.30917 20.4932 8.43768 20.9842 8.68301 21.419L8.68501 21.413ZM11.806 11.54C11.3446 11.5314 10.8863 11.6178 10.4597 11.7937C10.0331 11.9697 9.64717 12.2316 9.32601 12.563C8.6745 13.2721 8.31297 14.2 8.31297 15.163C8.31297 16.126 8.6745 17.0539 9.32601 17.763C9.98798 18.4177 10.8815 18.7849 11.8125 18.7849C12.7436 18.7849 13.637 18.4177 14.299 17.763C14.9512 17.0542 15.3131 16.1262 15.3131 15.163C15.3131 14.1998 14.9512 13.2718 14.299 12.563C14.0211 12.2853 13.6999 12.0547 13.348 11.88V13.572L13.39 13.612C13.7977 14.0263 14.0261 14.5843 14.0261 15.1655C14.0261 15.7467 13.7977 16.3047 13.39 16.719C13.0783 17.0324 12.6741 17.2371 12.237 17.303V11.562C12.094 11.5447 11.9501 11.5364 11.806 11.537V11.54ZM11.129 17.237C10.7907 17.1415 10.4828 16.9603 10.235 16.711C9.82783 16.2964 9.5997 15.7386 9.5997 15.1575C9.5997 14.5764 9.82783 14.0186 10.235 13.604C10.4828 13.3545 10.7907 13.173 11.129 13.077V17.237ZM23.589 55.548C22.8553 56.1576 22.2685 56.9249 21.8722 57.7926C21.4759 58.6603 21.2803 59.6062 21.3 60.56C21.2662 61.3869 21.4044 62.2119 21.7058 62.9827C22.0072 63.7534 22.4653 64.4533 23.051 65.038H17.051V69.574H36.62V65.038H35.268C35.8541 64.4544 36.3111 63.7543 36.6094 62.9829C36.9078 62.2115 37.0408 61.3861 37 60.56C37.0201 59.6094 36.8282 58.6662 36.4381 57.7991C36.048 56.9319 35.4697 56.1626 34.745 55.547C33.1884 54.21 31.1891 53.5019 29.138 53.561C27.1031 53.4936 25.119 54.2037 23.589 55.547V55.548ZM31.869 59.099C32.2292 59.4289 32.5127 59.8338 32.6996 60.285C32.8866 60.7363 32.9724 61.223 32.951 61.711C32.9576 62.4096 32.7602 63.095 32.383 63.683C32.0281 64.2472 31.5371 64.7132 30.955 65.038H27.316C26.7367 64.718 26.251 64.2523 25.907 63.687C25.5345 63.0958 25.3404 62.4097 25.348 61.711C25.3269 61.2231 25.413 60.7365 25.6001 60.2854C25.7872 59.8344 26.0708 59.4297 26.431 59.1C27.1633 58.4147 28.1354 58.0445 29.138 58.069C30.148 58.0429 31.1282 58.4129 31.869 59.1V59.099ZM29.683 41.55H21.733V37.493H36.62V41.55H34.453C35.1334 42.1482 35.6751 42.8876 36.0406 43.7166C36.406 44.5455 36.5863 45.4442 36.569 46.35C36.6087 47.0695 36.4876 47.7888 36.2145 48.4557C35.9414 49.1225 35.5231 49.7201 34.99 50.205C33.747 51.1913 32.184 51.6847 30.6 51.591H21.732V47.534H29.758C30.1758 47.5683 30.5962 47.5185 30.9944 47.3875C31.3925 47.2564 31.7603 47.0468 32.076 46.771C32.3283 46.5105 32.5251 46.2015 32.6546 45.8627C32.784 45.5239 32.8433 45.1624 32.829 44.8C32.82 44.1536 32.6347 43.5218 32.293 42.973L32.283 42.955C32.0071 42.5169 31.6229 42.1573 31.1674 41.911C30.712 41.6647 30.2007 41.54 29.683 41.549V41.55ZM21.3 26.222C21.3013 27.3203 21.6025 28.3973 22.171 29.337C22.5404 29.9665 23.0172 30.5263 23.58 30.991H21.68V35.522H36.62V30.992H29.234C28.6712 31.0007 28.1152 30.8679 27.6171 30.6058C27.1189 30.3437 26.6946 29.9607 26.383 29.492C26.3782 29.4853 26.3739 29.4783 26.37 29.471C25.9022 28.7421 25.6588 27.892 25.67 27.026C25.6656 26.6176 25.7116 26.2102 25.807 25.813L25.881 25.513H21.385L21.341 25.696C21.3101 25.8672 21.2976 26.0412 21.304 26.215L21.3 26.222ZM23.574 9.44499C22.8171 10.2225 22.2256 11.1454 21.8355 12.1579C21.4453 13.1705 21.2645 14.2516 21.304 15.336C21.2645 16.4205 21.4453 17.5018 21.8354 18.5145C22.2256 19.5272 22.817 20.4503 23.574 21.228C24.2892 21.9799 25.1536 22.5741 26.1117 22.9728C27.0698 23.3714 28.1005 23.5656 29.138 23.543C30.1838 23.5647 31.2228 23.3703 32.1901 22.972C33.1573 22.5736 34.0318 21.9799 34.759 21.228C36.2023 19.6049 36.9996 17.5085 36.9996 15.3365C36.9996 13.1645 36.2023 11.0681 34.759 9.44499C34.0319 8.69289 33.1574 8.09898 32.1902 7.70046C31.223 7.30195 30.1839 7.1074 29.138 7.12899C28.1009 7.11004 27.0712 7.30603 26.1136 7.70463C25.156 8.10322 24.2913 8.69578 23.574 9.44499ZM31.864 12.658C32.561 13.3754 32.9508 14.3363 32.9508 15.3365C32.9508 16.3367 32.561 17.2976 31.864 18.015C31.5028 18.3636 31.0756 18.6364 30.6075 18.8176C30.1394 18.9988 29.6398 19.0846 29.138 19.07C28.6401 19.0855 28.1441 19 27.6801 18.8187C27.216 18.6374 26.7935 18.364 26.438 18.015C25.7413 17.2966 25.3516 16.3352 25.3516 15.3345C25.3516 14.3338 25.7413 13.3723 26.438 12.654C26.7945 12.3066 27.2173 12.0346 27.6812 11.8542C28.145 11.6738 28.6405 11.5887 29.138 11.604C30.1504 11.5817 31.1304 11.961 31.864 12.659V12.658ZM32.211 0.79999C31.8244 1.18188 31.5604 1.67031 31.4526 2.20293C31.3449 2.73554 31.3983 3.28819 31.6061 3.79032C31.8138 4.29244 32.1665 4.72126 32.6191 5.02204C33.0717 5.32282 33.6036 5.4819 34.147 5.47899C34.5127 5.48707 34.8763 5.42236 35.2167 5.28862C35.5572 5.15489 35.8676 4.9548 36.13 4.69999C36.388 4.44498 36.5928 4.14131 36.7326 3.80659C36.8723 3.47186 36.9443 3.11273 36.9443 2.74999C36.9443 2.38725 36.8723 2.02812 36.7326 1.6934C36.5928 1.35867 36.388 1.05501 36.13 0.79999C35.8705 0.540137 35.5612 0.335346 35.2206 0.197882C34.88 0.0604178 34.5152 -0.00689054 34.148 -9.17408e-06C33.7877 -0.00646516 33.4299 0.0612187 33.0969 0.19884C32.7638 0.33646 32.4627 0.541079 32.212 0.79999H32.211ZM26.987 76.377V81.6H21.732V85.947H26.986V91.165H31.365V85.947H36.62V81.6H31.366V76.383H26.987V76.377Z" fill="#fff"/></g><defs><clipPath id="clip0"><path fill="#fff" d="M0 0H37V98H0z"/></clipPath></defs></svg>