<svg width="48" height="48" viewBox="0 0 48 48" fill="none" xmlns="http://www.w3.org/2000/svg"><path fill-rule="evenodd" clip-rule="evenodd" d="M48 24C48 28.7468 46.5925 33.387 43.9553 37.3337C41.3182 41.2805 37.5699 44.3566 33.1844 46.1731C28.799 47.9896 23.9734 48.4649 19.3179 47.5388C14.6623 46.6128 10.3859 44.327 7.02942 40.9706C3.67296 37.6141 1.38723 33.3377 0.461182 28.6822C-0.464863 24.0266 0.0104027 19.201 1.8269 14.8156C3.64341 10.4302 6.71948 6.68189 10.6663 4.04474C14.613 1.40758 19.2532 0 24 0C30.3626 0.00846654 36.4621 2.53978 40.9612 7.03882C45.4602 11.5379 47.9915 17.6374 48 24ZM45.99 24C45.99 19.6508 44.7003 15.3993 42.2841 11.783C39.8678 8.16678 36.4333 5.34827 32.4152 3.6839C28.397 2.01953 23.9756 1.58407 19.71 2.43256C15.4443 3.28105 11.526 5.37539 8.45068 8.45074C5.37533 11.5261 3.28098 15.4443 2.4325 19.71C1.58401 23.9756 2.01947 28.3971 3.68384 32.4152C5.34821 36.4334 8.16672 39.8678 11.783 42.2841C15.3992 44.7003 19.6508 45.99 24 45.99C29.8298 45.9826 35.4188 43.6635 39.5411 39.5411C43.6635 35.4188 45.9826 29.8298 45.99 24ZM32 25H19L19.02 27L15 24.5L19.02 22L19 24H32V25Z" fill="#fff"/></svg>