<svg width="48" height="48" viewBox="0 0 48 48" fill="none" xmlns="http://www.w3.org/2000/svg"><path fill-rule="evenodd" clip-rule="evenodd" d="M0 24C0 28.7468 1.40752 33.387 4.04468 37.3337C6.68183 41.2805 10.4301 44.3566 14.8156 46.1731C19.201 47.9896 24.0266 48.4649 28.6821 47.5388C33.3377 46.6128 37.6141 44.327 40.9706 40.9706C44.327 37.6141 46.6128 33.3377 47.5388 28.6822C48.4649 24.0266 47.9896 19.201 46.1731 14.8156C44.3566 10.4302 41.2805 6.68189 37.3337 4.04474C33.387 1.40758 28.7468 0 24 0C17.6374 0.00846654 11.5379 2.53978 7.03882 7.03882C2.53978 11.5379 0.00846654 17.6374 0 24ZM2.01001 24C2.01001 19.6508 3.29965 15.3993 5.71594 11.783C8.13223 8.16678 11.5667 5.34827 15.5848 3.6839C19.603 2.01953 24.0244 1.58407 28.29 2.43256C32.5557 3.28105 36.474 5.37539 39.5493 8.45074C42.6247 11.5261 44.719 15.4443 45.5675 19.71C46.416 23.9756 45.9805 28.3971 44.3162 32.4152C42.6518 36.4334 39.8333 39.8678 36.217 42.2841C32.6008 44.7003 28.3492 45.99 24 45.99C18.1702 45.9826 12.5812 43.6635 8.45886 39.5411C4.33654 35.4188 2.01742 29.8298 2.01001 24ZM16 25H29L28.98 27L33 24.5L28.98 22L29 24H16V25Z" fill="#fff"/></svg>