<svg width="109" height="451" viewBox="0 0 109 451" fill="none" xmlns="http://www.w3.org/2000/svg"><g clip-path="url(#clip0)"><path fill-rule="evenodd" clip-rule="evenodd" d="M-0.00991163 254.2C-0.00991163 270.425 5.08991 283.763 15.3099 294.327C13.7 295.343 12.1777 296.493 10.7596 297.763C3.58962 304.191 8.83685e-05 313.121 -0.00991163 324.552C-0.103067 332.147 1.63589 339.652 5.05991 346.431C8.11659 352.711 12.7553 358.087 18.5199 362.031C12.8009 364.36 8.05112 368.576 5.05991 373.978C1.65991 379.678 -0.00991163 386.519 -0.00991163 394.478C-0.00991163 409.282 5.40007 420.598 16.2201 428.425H2.74985V450.995H106.27V428.425H37.9501C33.0548 425.794 28.9368 421.923 26.0096 417.199C22.9826 412.633 21.3464 407.287 21.2997 401.809C21.2997 387.704 29.7997 380.654 46.7997 380.659H106.27V358.066H38.5697C33.5174 355.706 29.2386 351.961 26.2298 347.266C23.0524 342.681 21.3338 337.244 21.2997 331.666C21.2997 317.742 29.7997 310.772 46.7997 310.757H54.39C69.71 310.757 82.64 305.454 93.18 294.848C95.2516 292.772 97.148 290.529 98.85 288.141C105.61 278.728 108.993 267.415 109 254.202C109 238.014 103.727 224.547 93.18 213.802C88.1359 208.651 82.0941 204.583 75.4247 201.847C68.7552 199.11 61.5981 197.762 54.39 197.885C39.2 197.885 26.3363 203.191 15.7997 213.802C5.26966 224.568 8.83685e-05 238.035 -0.00991163 254.202V254.2ZM79.0497 230.127C85.4011 236.581 88.9608 245.272 88.9608 254.327C88.9608 263.382 85.4011 272.074 79.0497 278.527C72.5797 284.918 64.36 288.143 54.39 288.143C44.56 288.143 36.4098 284.918 29.9398 278.527C23.5884 272.074 20.0287 263.382 20.0287 254.327C20.0287 245.272 23.5884 236.581 29.9398 230.127C36.4098 223.737 44.56 220.504 54.39 220.504C64.36 220.504 72.5797 223.737 79.0497 230.127ZM5.78989 136.772C9.20453 143.275 14.3462 148.71 20.6498 152.479H2.74009V175.087H106.25V152.473H42.7899C37.1699 149.954 32.39 145.625 28.45 139.488C24.5043 133.301 22.4531 126.096 22.5497 118.759C22.5761 116.66 22.7198 114.564 22.9798 112.481H0.200049C0.0347799 113.168 -0.0358338 113.875 -0.00991163 114.581C-0.0223799 122.353 1.97547 129.996 5.78989 136.768V136.772ZM54.39 -16.992C39.21 -16.992 26.3463 -11.6863 15.7997 -1.07498C5.26966 9.65369 8.83685e-05 23.1204 -0.00991163 39.325C-0.00991163 55.7917 5.25966 69.33 15.7997 79.94C26.3397 90.564 39.2033 95.8674 54.39 95.85C69.71 95.85 82.6431 90.5467 93.1898 79.94C103.723 69.34 108.993 55.8017 109 39.325C109 23.137 103.73 9.67036 93.1898 -1.07498C88.866 -5.39824 83.8675 -8.98885 78.39 -11.706V14.624C78.6 14.835 78.8397 15.045 79.0497 15.248C85.3941 21.6971 88.9501 30.3814 88.9501 39.428C88.9501 48.4747 85.3941 57.1589 79.0497 63.608C74.197 68.4877 67.9043 71.678 61.1 72.708V-16.61C58.8734 -16.8772 56.6325 -17.0055 54.39 -16.994V-16.992ZM43.8597 71.8C38.5877 70.3145 33.7895 67.4916 29.93 63.605C23.5906 57.1533 20.0384 48.47 20.0384 39.425C20.0384 30.38 23.5906 21.6967 29.93 15.245C33.7905 11.3587 38.5882 8.53432 43.8597 7.04502V71.8Z" fill="#fff"/></g><defs><clipPath id="clip0"><path fill="#fff" transform="translate(0 -17)" d="M0 0H109V468H0z"/></clipPath></defs></svg>