<svg width="97" height="48" viewBox="0 0 97 48" fill="none" xmlns="http://www.w3.org/2000/svg"><path fill-rule="evenodd" clip-rule="evenodd" d="M48.3868 24C48.3868 28.7468 49.7914 33.387 52.4231 37.3338C55.0547 41.2805 58.7952 44.3566 63.1715 46.1731C67.5479 47.9896 72.3634 48.4649 77.0093 47.5388C81.6552 46.6128 85.9227 44.3271 89.2722 40.9706C92.6217 37.6141 94.9027 33.3377 95.8268 28.6822C96.7509 24.0267 96.2766 19.201 94.4639 14.8156C92.6512 10.4302 89.5815 6.6819 85.6429 4.04474C81.7043 1.40759 77.0738 0 72.3369 0C65.9875 0.00846654 59.9007 2.53978 55.411 7.03882C50.9213 11.5379 48.3952 17.6374 48.3868 24ZM50.3926 24C50.3926 19.6508 51.6796 15.3993 54.0908 11.783C56.5021 8.16679 59.9294 5.34827 63.9392 3.6839C67.949 2.01953 72.3612 1.58407 76.618 2.43256C80.8748 3.28105 84.7849 5.37539 87.8539 8.45075C90.9229 11.5261 93.0128 15.4443 93.8596 19.71C94.7063 23.9756 94.2717 28.3971 92.6108 32.4152C90.9499 36.4334 88.1373 39.8678 84.5285 42.2841C80.9198 44.7004 76.6771 45.99 72.3369 45.99C66.5192 45.9826 60.9418 43.6635 56.8281 39.5412C52.7143 35.4188 50.4 29.8298 50.3926 24ZM64.3535 25H77.3265L77.3065 27L81.3182 24.5L77.3065 22L77.3265 24H64.3535V25ZM28.4284 24V25H0.486572V24H28.4284Z" fill="#fff"/></svg>