<svg width="34" height="34" viewBox="0 0 34 34" fill="none" xmlns="http://www.w3.org/2000/svg"><path d="M16.9997 0C10.2985 0 4.84668 5.45183 4.84668 12.153C4.84668 14.9044 6.77771 19.2699 10.5862 25.1283C13.3688 29.4085 16.191 32.9794 16.2192 33.0149L16.9998 34L17.7803 33.0149C17.8085 32.9793 20.6307 29.4085 23.4133 25.1283C27.2218 19.27 29.1529 14.9044 29.1529 12.153C29.1528 5.45183 23.7009 0 16.9997 0ZM16.9996 30.7732C13.5712 26.2836 6.83834 16.5576 6.83834 12.153C6.83834 6.55006 11.3967 1.99166 16.9997 1.99166C22.6027 1.99166 27.1611 6.55006 27.1611 12.153C27.1611 16.5553 20.4281 26.2828 16.9996 30.7732Z" fill="#fff"/><path d="M17 4.78C13.0831 4.78 9.89648 7.96664 9.89648 11.8836C9.89648 15.8005 13.0831 18.9871 17 18.9871C20.9169 18.9871 24.1036 15.8005 24.1036 11.8836C24.1037 7.96664 20.917 4.78 17 4.78ZM17 16.9955C14.1813 16.9955 11.8881 14.7023 11.8881 11.8836C11.8881 9.06494 14.1814 6.77173 17 6.77173C19.8188 6.77173 22.1119 9.06494 22.1119 11.8836C22.1119 14.7023 19.8188 16.9955 17 16.9955Z" fill="#fff"/></svg>