<svg width="96" height="48" viewBox="0 0 96 48" fill="none" xmlns="http://www.w3.org/2000/svg"><path fill-rule="evenodd" clip-rule="evenodd" d="M48 24C48 28.7468 49.4075 33.387 52.0447 37.3337C54.6818 41.2805 58.4301 44.3566 62.8156 46.1731C67.201 47.9896 72.0266 48.4649 76.6821 47.5388C81.3377 46.6128 85.6141 44.327 88.9706 40.9706C92.327 37.6141 94.6128 33.3377 95.5388 28.6822C96.4649 24.0266 95.9896 19.201 94.1731 14.8156C92.3566 10.4302 89.2805 6.68189 85.3337 4.04474C81.387 1.40758 76.7468 0 72 0C65.6374 0.00846654 59.5379 2.53978 55.0388 7.03882C50.5398 11.5379 48.0085 17.6374 48 24ZM50.01 24C50.01 19.6508 51.2997 15.3993 53.7159 11.783C56.1322 8.16678 59.5667 5.34827 63.5848 3.6839C67.603 2.01953 72.0244 1.58407 76.29 2.43256C80.5557 3.28105 84.474 5.37539 87.5493 8.45074C90.6247 11.5261 92.719 15.4443 93.5675 19.71C94.416 23.9756 93.9805 28.3971 92.3162 32.4152C90.6518 36.4334 87.8333 39.8678 84.217 42.2841C80.6008 44.7003 76.3492 45.99 72 45.99C66.1702 45.9826 60.5812 43.6635 56.4589 39.5411C52.3365 35.4188 50.0174 29.8298 50.01 24ZM64 25H77L76.98 27L81 24.5L76.98 22L77 24H64V25ZM28 24V25H0V24H28Z" fill="#fff"/></svg>